<svg xmlns="http://www.w3.org/2000/svg">
    <symbol id="views-element" width="100%" height="200%" viewBox="0 0 4 4">
      <path d="M0.559576 2.79288c0,0 1.28594,-1.74977 2.86721,0 0,0 -1.28594,1.79195 -2.86721,0zm1.43352 -0.530924c-0.298245,0 -0.540165,0.241971 -0.540165,0.540416 0,0.298195 0.241895,0.540215 0.540165,0.540215 0.298571,0 0.540416,-0.242046 0.540416,-0.540215 0,-0.298421 -0.241895,-0.540416 -0.540416,-0.540416zm0 0.896492c-0.19652,0 -0.356051,-0.159456 -0.356051,-0.356051 0,-0.196796 0.159531,-0.356176 0.356051,-0.356176 0.196796,0 0.356251,0.15938 0.356251,0.356176 0,0.196595 -0.159456,0.356051 -0.356251,0.356051z"/>
    </symbol>
</svg>